<svg width="24" height="16" viewBox="0 0 24 16" fill="none" xmlns="http://www.w3.org/2000/svg">
<path d="M13.4642 16H22.386C22.6694 16 22.9478 15.9261 23.1932 15.7857C23.4386 15.6452 23.6424 15.4432 23.784 15.2C23.9256 14.9567 24.0001 14.6808 24 14.3999C23.9999 14.1191 23.9251 13.8432 23.7833 13.6001L17.7917 3.31436C17.65 3.07116 17.4463 2.8692 17.201 2.72878C16.9556 2.58836 16.6773 2.51443 16.394 2.51443C16.1106 2.51443 15.8323 2.58836 15.587 2.72878C15.3416 2.8692 15.1379 3.07116 14.9963 3.31436L13.4642 5.94611L10.4688 0.799811C10.3271 0.556628 10.1233 0.354695 9.87786 0.214302C9.63244 0.0739093 9.35406 0 9.0707 0C8.78733 0 8.50895 0.0739093 8.26353 0.214302C8.01812 0.354695 7.8143 0.556628 7.67256 0.799811L0.216706 13.6001C0.0748647 13.8432 0.000123449 14.1191 1.52794e-07 14.3999C-0.000123144 14.6808 0.0743759 14.9567 0.216004 15.2C0.357632 15.4432 0.561395 15.6452 0.806799 15.7857C1.0522 15.9261 1.33059 16 1.61397 16H7.21434C9.43327 16 11.0696 15.034 12.1956 13.1494L14.9293 8.45721L16.3935 5.94611L20.7879 13.4889H14.9293L13.4642 16ZM7.12304 13.4863L3.2147 13.4855L9.0733 3.42897L11.9965 8.45721L10.0393 11.818C9.29155 13.0408 8.44206 13.4863 7.12304 13.4863Z" fill="#00DC82"/>
</svg>
